<?xml version="1.0" standalone="no"?><!DOCTYPE svg PUBLIC "-//W3C//DTD SVG 1.1//EN" "http://www.w3.org/Graphics/SVG/1.1/DTD/svg11.dtd"><svg t="1514214250443" class="icon" style="" viewBox="0 0 1024 1024" version="1.1" xmlns="http://www.w3.org/2000/svg" p-id="4773" xmlns:xlink="http://www.w3.org/1999/xlink" width="200" height="200"><defs><style type="text/css"></style></defs><path d="M146.473491 0.189312l731.050971 0 42.770106 0L920.294568 42.992163l0 938.01465 0 42.803875-42.770106 0L361.576547 1023.810688l-13.9405 0-11.464099-8.479115-215.103056-160.157653-17.365506-12.888542 0-21.36868L103.703385 42.992163l0-42.802852L146.473491 0.189312 146.473491 0.189312zM189.242574 777.367857l130.24232-48.027853 18.518772-6.850012 5.426593 18.993586 56.201 196.787922L834.75538 938.2715 834.75538 85.7285 189.242574 85.7285 189.242574 777.367857 189.242574 777.367857zM357.743242 925.044244l-44.159756-154.527422-109.213377 40.293705L357.743242 925.044244 357.743242 925.044244zM296.896432 551.004339l0 35.613102 436.649871 0 0-35.613102L296.896432 551.004339 296.896432 551.004339zM296.896432 444.23257l0 35.613102 436.649871 0 0-35.613102L296.896432 444.23257 296.896432 444.23257zM296.896432 327.830467l0 35.544541 436.649871 0 0-35.544541L296.896432 327.830467 296.896432 327.830467zM296.896432 221.058698l0 35.613102 436.649871 0 0-35.613102L296.896432 221.058698z" p-id="4774"></path></svg>