<?xml version="1.0" standalone="no"?><!DOCTYPE svg PUBLIC "-//W3C//DTD SVG 1.1//EN" "http://www.w3.org/Graphics/SVG/1.1/DTD/svg11.dtd"><svg t="1514213920727" class="icon" style="" viewBox="0 0 1024 1024" version="1.1" xmlns="http://www.w3.org/2000/svg" p-id="3986" xmlns:xlink="http://www.w3.org/1999/xlink" width="200" height="200"><defs><style type="text/css"></style></defs><path d="M134.25777777 192.72817777v144.1792c0 20.89870222 16.31118222 37.13706667 37.13706667 37.13706666h144.1792c20.89870222 0 37.13706667-16.31118222 37.13706666-37.13706666V192.72817777a36.70016 36.70016 0 0 0-37.13706666-37.13706667H171.39484444a36.70016 36.70016 0 0 0-37.13706667 37.13706667z m-72.81777777 0c0-60.94848 48.78791111-109.95484445 109.95484444-109.95484444h144.1792c60.94848 0 109.95484445 48.78791111 109.95484445 109.95484444v144.1792c0 60.94848-48.78791111 109.95484445-109.95484445 109.95484445H171.39484444c-60.94848 0-109.95484445-48.78791111-109.95484444-109.95484445V192.72817777zM134.25777777 702.45262222v144.1792c0 20.89870222 16.31118222 37.13706667 37.13706667 37.13706666h144.1792c20.89870222 0 37.13706667-16.31118222 37.13706666-37.13706666v-144.1792a36.70016 36.70016 0 0 0-37.13706666-37.13706667H171.39484444a36.70016 36.70016 0 0 0-37.13706667 37.13706667z m-72.81777777 0c0-60.94848 48.78791111-109.95484445 109.95484444-109.95484445h144.1792c60.94848 0 109.95484445 48.78791111 109.95484445 109.95484445v144.1792c0 60.94848-48.78791111 109.95484445-109.95484445 109.95484444H171.39484444c-60.94848 0-109.95484445-48.78791111-109.95484444-109.95484444v-144.1792z" p-id="3987"></path><path d="M534.75555555 155.5911111a36.40888889 36.40888889 0 0 1 35.75352889-36.40888888h365.39960889a36.40888889 36.40888889 0 0 1 0 72.81777778H570.50908444A36.40888889 36.40888889 0 0 1 534.75555555 155.5911111z m0 218.45333333a36.40888889 36.40888889 0 0 1 35.75352889-36.40888888h365.39960889a36.40888889 36.40888889 0 0 1 0 72.81777778H570.50908444A36.40888889 36.40888889 0 0 1 534.75555555 374.04444443zM534.75555555 665.31555555a36.40888889 36.40888889 0 0 1 35.75352889-36.40888889h365.39960889a36.40888889 36.40888889 0 0 1 0 72.81777777H570.50908444A36.40888889 36.40888889 0 0 1 534.75555555 665.31555555zM534.75555555 883.76888888a36.40888889 36.40888889 0 0 1 35.75352889-36.40888888h365.39960889a36.40888889 36.40888889 0 0 1 0 72.81777777H570.50908444A36.40888889 36.40888889 0 0 1 534.75555555 883.76888888z" p-id="3988"></path></svg>