<?xml version="1.0" standalone="no"?><!DOCTYPE svg PUBLIC "-//W3C//DTD SVG 1.1//EN" "http://www.w3.org/Graphics/SVG/1.1/DTD/svg11.dtd"><svg t="1514991338980" class="icon" style="" viewBox="0 0 1345 1024" version="1.1" xmlns="http://www.w3.org/2000/svg" p-id="1883" xmlns:xlink="http://www.w3.org/1999/xlink" width="262.6953125" height="200"><defs><style type="text/css"></style></defs><path d="M1286.243902 174.829269c-24.97561 0-49.95122-20.813008-49.95122-49.95122C1240.455285 108.227643 1227.96748 95.739838 1211.317073 95.739838L129.040651 95.739838c-16.650407 0-29.138211 12.487805-29.138211 29.138211 0 24.97561-20.813008 49.95122-49.95122 49.95122-24.97561 0-49.95122-20.813008-49.95122-49.95122 0-70.764228 58.276423-124.878049 124.878049-124.878049l1082.276422 0c70.764228 0 124.878049 58.276423 124.878049 124.878049C1336.195122 154.016261 1315.382114 174.829269 1286.243902 174.829269L1286.243902 174.829269 1286.243902 174.829269zM1211.317073 1024 129.040651 1024c-70.764228 0-124.878049-54.113821-124.878049-124.878049 0-24.97561 20.813008-49.95122 49.95122-49.95122 24.97561 0 49.95122 20.813008 49.95122 49.95122 0 16.650407 12.487805 29.138211 29.138211 29.138211l1082.276422 0c16.650407 0 29.138211-12.487805 29.138211-29.138211 0-24.97561 20.813008-49.95122 49.95122-49.95122 24.97561 0 49.95122 20.813008 49.95122 49.95122C1336.195122 965.723577 1277.918699 1024 1211.317073 1024L1211.317073 1024 1211.317073 1024zM170.666668 715.96748 170.666668 666.01626l74.926829 0L245.593497 362.146342l-83.252033 29.138211-4.162602-54.113821 116.552846-41.626016 29.138211 0 0 366.308943 62.439024 0 0 49.95122L170.666668 711.804878 170.666668 715.96748 170.666668 715.96748zM516.162602 487.024391C503.674798 470.373985 495.349594 445.398375 495.349594 420.422765c0-70.764228 54.113821-124.878049 133.203252-124.878049C711.804878 299.707318 765.918699 345.495936 765.918699 424.585367c0 58.276423-29.138211 104.065041-95.739837 158.178862-20.813008 20.813008-54.113821 49.95122-83.252033 83.252033l183.154472 0 0 49.95122L495.349594 715.96748 495.349594 686.829268c41.626016-45.788618 99.902439-104.065041 145.691057-145.691057 49.95122-45.788618 70.764228-79.089431 70.764228-116.552846 0-45.788618-29.138211-74.926829-79.089431-74.926829-45.788618 0-74.926829 29.138211-74.926829 66.601626 0 16.650407 4.162602 33.300813 16.650407 45.788618L516.162602 487.024391 516.162602 487.024391 516.162602 487.024391zM953.235772 611.902439c20.813008 37.463415 49.95122 62.439024 87.414634 62.439024 49.95122 0 83.252033-33.300813 83.252033-79.089431 0-45.788618-24.97561-70.764228-70.764228-70.764228l-29.138211 0L1024 474.536586l29.138211 0c37.463415 0 58.276423-20.813008 58.276423-62.439024 0-37.463415-29.138211-62.439024-70.764228-62.439024-33.300813 0-62.439024 20.813008-83.252033 66.601626L911.609756 387.121952c29.138211-58.276423 70.764228-87.414634 133.203252-87.414634 74.926829 0 129.04065 41.626016 129.04065 112.390244 0 41.626016-20.813008 70.764228-54.113821 91.577236 41.626016 16.650407 66.601626 45.788618 66.601626 95.739837 0 79.089431-58.276423 129.04065-141.528455 129.04065-62.439024 0-104.065041-29.138211-133.203252-79.089431L953.235772 611.902439 953.235772 611.902439 953.235772 611.902439zM953.235772 611.902439" p-id="1884"></path></svg>