<?xml version="1.0" standalone="no"?><!DOCTYPE svg PUBLIC "-//W3C//DTD SVG 1.1//EN" "http://www.w3.org/Graphics/SVG/1.1/DTD/svg11.dtd"><svg t="1514214217360" class="icon" style="" viewBox="0 0 1031 1024" version="1.1" xmlns="http://www.w3.org/2000/svg" p-id="4321" xmlns:xlink="http://www.w3.org/1999/xlink" width="201.3671875" height="200"><defs><style type="text/css"></style></defs><path d="M422.495 226.407l-97.74-37.845-25.11 101.07-135.585-36.382 0 126.653-96.435 0 0 520.222 833.332 0c0 0 0-91.035 0-180.923l0-13.162 66.667 0 0-129.352-66.667 0 0-11.318c0-100.935 0-185.468 0-185.468l-29.768 0 0-61.965-385.717-194.063M346.58 230.075l363.892 149.85-74.407 0-306.292-82.192 16.807-67.657zM196.19 294.2l319.343 85.702-319.343 0 0-85.702zM838.745 835.438l-706.838 0 0-387.877 706.86 0c0 0 0 58.073 0 129.127l-224.685 0 0 129.352 224.685 0c-0.023 65.183-0.023 129.398-0.023 129.398zM839.06 673.73l-192.87 0 0-64.687 192.87 0 0 64.687zM839.06 379.903l-96.435 0 0-20.183-281.408-118.35 40.118-60.57 337.725 160.043 0 39.06z" p-id="4322"></path></svg>