<?xml version="1.0" standalone="no"?><!DOCTYPE svg PUBLIC "-//W3C//DTD SVG 1.1//EN" "http://www.w3.org/Graphics/SVG/1.1/DTD/svg11.dtd"><svg t="1514214209074" class="icon" style="" viewBox="0 0 1025 1024" version="1.1" xmlns="http://www.w3.org/2000/svg" p-id="4208" xmlns:xlink="http://www.w3.org/1999/xlink" width="200.1953125" height="200"><defs><style type="text/css"></style></defs><path d="M1014.331575 1013.87659C1009.09925 1020.075757 1001.421383 1024 991.98045 1024L703.975118 1024C686.287587 1024 671.955568 1009.667981 671.955568 991.98045 671.955568 974.292919 686.287587 960.017773 703.975118 960.017773L914.348681 960.984615 569.185893 615.821827 614.4 570.550847 959.9609 916.111747 959.9609 704.031991C959.9609 686.34446 974.292919 672.012441 991.98045 672.012441 1009.611108 672.012441 1023.943127 686.34446 1023.943127 704.031991L1024 991.07048C1024 1000.056429 1020.246376 1008.075535 1014.331575 1013.87659ZM991.98045 352.044432C974.292919 352.044432 959.9609 337.712413 959.9609 320.024882L960.984615 109.651319 615.764954 454.814107 570.550847 409.543127 916.054874 64.0391 703.975118 64.0391C686.287587 64.0391 671.955568 49.707081 671.955568 32.01955 671.955568 14.332019 686.287587 0 703.975118 0L991.07048 0C999.999556 0 1008.075535 3.753624 1013.87659 9.668425 1020.018884 14.90075 1023.943127 22.521744 1023.943127 32.01955L1023.943127 320.024882C1023.943127 337.712413 1009.611108 352.044432 991.98045 352.044432ZM409.543127 453.449153 63.982227 107.888253 63.982227 320.024882C63.982227 337.712413 49.650208 352.044432 32.01955 352.044432 14.332019 352.044432 0 337.712413 0 320.024882L0 32.92952C0 24.000444 3.696751 15.924465 9.611552 10.12341 14.843877 3.924243 22.521744 0 32.01955 0L319.968009 0C337.65554 0 351.987559 14.332019 351.987559 32.01955 351.987559 49.707081 337.65554 64.0391 319.968009 64.0391L109.594446 63.015385 454.814107 408.235046 409.543127 453.449153ZM32.01955 672.012441C49.650208 672.012441 63.982227 686.34446 63.982227 704.031991L63.015385 914.405554 408.178173 569.185893 453.449153 614.456873 107.888253 960.017773 319.968009 960.017773C337.65554 960.017773 351.987559 974.349792 351.987559 991.98045 351.987559 1009.667981 337.65554 1024 319.968009 1024L32.92952 1024C23.943571 1024 15.924465 1020.303249 10.12341 1014.388448 3.924243 1009.09925 0 1001.478256 0 991.98045L0 704.031991C0 686.34446 14.332019 672.012441 32.01955 672.012441Z" p-id="4209"></path></svg>