<?xml version="1.0" standalone="no"?><!DOCTYPE svg PUBLIC "-//W3C//DTD SVG 1.1//EN" "http://www.w3.org/Graphics/SVG/1.1/DTD/svg11.dtd"><svg t="1514214197333" class="icon" style="" viewBox="0 0 1024 1024" version="1.1" xmlns="http://www.w3.org/2000/svg" p-id="4095" xmlns:xlink="http://www.w3.org/1999/xlink" width="200" height="200"><defs><style type="text/css"></style></defs><path d="M374.856 815.688c-16.456 0-27.428-11.044-27.428-27.608V373.96c0-16.564 10.972-27.608 27.428-27.608 16.46 0 27.432 11.044 27.432 27.608v414.12c0 13.8-10.972 27.604-27.432 27.604z m137.144 0c-16.456 0-27.428-11.044-27.428-27.608V373.96c0-16.564 10.972-27.608 27.428-27.608 16.456 0 27.428 11.044 27.428 27.608v414.12c0 13.8-10.972 27.604-27.428 27.604z m137.144 0c-16.456 0-27.428-11.044-27.428-27.608V373.96c0-16.564 10.972-27.608 27.428-27.608 16.456 0 27.428 11.044 27.428 27.608v414.12c0 13.8-10.972 27.604-27.428 27.604zM786.28 235.92H237.712v634.98c0 30.368 24.688 55.212 54.86 55.212h438.856c30.172 0 54.856-24.844 54.856-55.216V235.92z m-137.14-82.828c0-30.368-24.688-55.216-54.86-55.216h-164.56c-30.172 0-54.86 24.848-54.86 55.216v27.612h274.288v-27.612z m219.428 82.828h-27.428v634.98c0 60.736-49.372 110.428-109.716 110.428H292.572c-60.344 0-109.716-49.692-109.716-110.432V235.92h-27.428c-16.456 0-27.428-11.04-27.428-27.608 0-16.56 10.972-27.608 27.428-27.608H320v-27.608c0-60.736 49.372-110.428 109.712-110.428h164.572C654.628 42.668 704 92.36 704 153.096v27.608h164.572c16.456 0 27.428 11.044 27.428 27.608 0 13.804-10.972 27.608-27.428 27.608z" fill="#34475E" p-id="4096"></path></svg>