<?xml version="1.0" standalone="no"?><!DOCTYPE svg PUBLIC "-//W3C//DTD SVG 1.1//EN" "http://www.w3.org/Graphics/SVG/1.1/DTD/svg11.dtd"><svg t="1514214243871" class="icon" style="" viewBox="0 0 1024 1024" version="1.1" xmlns="http://www.w3.org/2000/svg" p-id="4660" xmlns:xlink="http://www.w3.org/1999/xlink" width="200" height="200"><defs><style type="text/css"></style></defs><path d="M439.323351 775.47781c-49.280352 0-97.09834-9.656941-142.126681-28.699646-43.480015-18.388812-82.522793-44.706201-116.043584-78.225619s-59.841305-72.560596-78.230871-116.03883C83.878729 507.486196 74.222416 459.669144 74.222416 410.390811c0-49.284473 9.656313-97.104595 28.699798-142.133138 18.388542-43.479257 44.71008-82.520435 78.231894-116.03883 33.518745-33.515325 72.562546-59.832713 116.043584-78.219479 45.027318-19.039635 92.846329-28.694529 142.125658-28.694529 49.280352 0 97.099364 9.653871 142.126681 28.694529 43.481039 18.385742 82.525863 44.704155 116.044608 78.220502 33.520791 33.518395 59.842328 72.559573 78.230871 116.03883 19.042462 45.028543 28.699798 92.848665 28.699798 142.133138 0 49.278333-9.657336 97.095385-28.701845 142.122905-18.388542 43.47721-44.708033 82.520435-78.228824 116.03883s-72.563569 59.838853-116.043584 78.226642C536.422715 765.822916 488.603703 775.47781 439.323351 775.47781zM439.323351 98.516758c-171.975699 0-311.887855 139.906423-311.887855 311.875077S267.347652 722.265888 439.323351 722.265888s311.887855-139.907447 311.887855-311.874053S611.299051 98.516758 439.323351 98.516758zM890.678206 944.734702c-22.121716 0-42.90387-8.562003-58.541653-24.115234L674.672953 767.974929l37.039062-38.20616 157.888289 153.058978c5.606924 5.606695 13.091693 8.692986 21.077901 8.692986 7.983139 0 15.464837-3.087315 21.070738-8.69094 5.616135-5.622044 8.715856-13.126972 8.715856-21.123087 0-7.980765-3.091535-15.46318-8.702552-21.067828l-0.301888-0.306992L758.714395 682.769338l38.207726-37.035498 152.611906 157.427472c15.571265 15.638165 24.144876 36.422538 24.144876 58.549487 0 22.195511-8.625801 43.054585-24.287121 58.735729C933.723298 936.112324 912.876674 944.734702 890.678206 944.734702zM281.015489 568.754608c-42.340005-42.320874-65.652899-98.584296-65.643689-158.421102 0.008187-59.818387 23.319034-116.074645 65.637549-158.4078l37.634651 37.619806c-66.60666 66.629513-66.60973 175.00071-0.007163 241.577011L281.015489 568.754608z" p-id="4661"></path></svg>