<?xml version="1.0" standalone="no"?><!DOCTYPE svg PUBLIC "-//W3C//DTD SVG 1.1//EN" "http://www.w3.org/Graphics/SVG/1.1/DTD/svg11.dtd"><svg t="1514214231914" class="icon" style="" viewBox="0 0 1024 1024" version="1.1" xmlns="http://www.w3.org/2000/svg" p-id="4434" xmlns:xlink="http://www.w3.org/1999/xlink" width="200" height="200"><defs><style type="text/css"></style></defs><path d="M633.011306 977.86444 633.011306 977.399011 139.657519 977.399011c-24.667689 0-47.939094-9.77399-65.625362-27.460258C56.345889 932.252486 46.571899 908.981081 46.571899 884.313391L46.571899 139.62843c0-24.667689 9.77399-47.939094 27.460258-65.625362C91.718425 56.3168 114.98983 46.54281 139.657519 46.54281l605.056531 0c24.667689 0 47.939094 9.77399 65.625362 27.460258C828.02568 91.689336 837.79967 114.960741 837.79967 139.62843l0 209.209931c0 0 0 0 0 0.232714 0 12.799273 10.472132 23.271405 23.271405 23.271405 12.799273 0 23.271405-10.472132 23.271405-23.271405l0 0L884.342481 139.62843c0-76.795637-62.832794-139.62843-139.62843-139.62843L139.657519 0C62.861883 0 0.029089 62.832794 0.029089 139.62843l0 744.684961c0 76.795637 62.832794 139.62843 139.62843 139.62843l493.353787 0 0-0.465428c10.704846-2.094426 18.617124-11.635703 18.617124-22.805977S643.716152 979.958866 633.011306 977.86444zM721.442645 192.221806 721.442645 192.221806c0-12.799273-10.472132-23.271405-23.271405-23.271405L186.20033 168.950401c-12.799273 0-23.271405 10.472132-23.271405 23.271405l0 0c0 12.799273 10.472132 23.271405 23.271405 23.271405l511.970911 0C710.970513 215.493211 721.442645 205.021078 721.442645 192.221806zM186.20033 857.318561l139.62843 0c12.799273 0 23.271405-10.472132 23.271405-23.271405s-10.472132-23.271405-23.271405-23.271405L186.20033 810.775751c-12.799273 0-23.271405 10.472132-23.271405 23.271405S173.401057 857.318561 186.20033 857.318561zM186.20033 536.405886l93.08562 0c12.799273 0 23.271405-10.472132 23.271405-23.271405s-10.472132-23.271405-23.271405-23.271405L186.20033 489.863076c-12.799273 0-23.271405 10.472132-23.271405 23.271405S173.401057 536.405886 186.20033 536.405886zM1017.222203 984.147719l-172.208397-172.208397c39.09596-46.54281 62.60008-106.583035 62.60008-171.975683 0-147.773422-119.847736-267.621158-267.621158-267.621158s-267.621158 119.847736-267.621158 267.621158 119.847736 267.621158 267.621158 267.621158c65.625362 0 125.432873-23.504119 171.975683-62.60008l172.208397 172.208397c9.075848 9.075848 23.969547 9.075848 32.812681 0S1026.298051 993.223567 1017.222203 984.147719zM639.992728 861.041986c-121.942162 0-221.078348-99.136185-221.078348-221.078348s99.136185-221.078348 221.078348-221.078348 221.078348 99.136185 221.078348 221.078348S761.93489 861.041986 639.992728 861.041986z" p-id="4435"></path></svg>